<?xml version="1.0" encoding="utf-8"?>
<svg xmlns="http://www.w3.org/2000/svg" viewBox="0 0 165.02 121.41"><defs><style>.cls-1{fill:#e45819;}.cls-2{fill:#030304;}.cls-3{fill:#f95718;}.cls-4{fill:#f2e9d9;}.cls-5{fill:#e45a1c;}.cls-6{fill:#010101;}.cls-7{fill:#f5e8d7;}.cls-8{fill:#59554e;}.cls-9{fill:#fcf6e7;}.cls-10{fill:#fdf4e8;}.cls-11{fill:#fefefe;}.cls-12{fill:#fdfdfd;}.cls-13{fill:#fdfdfe;}.cls-14{fill:#f2e5d3;}.cls-15{fill:#030303;}.cls-16{fill:#232120;}.cls-17{fill:#f0e3d3;}.cls-18{fill:#f3e7d6;}.cls-19{fill:#f2e4d3;}.cls-20{fill:#f3ebd9;}.cls-21{fill:#f3e5d4;}.cls-22{fill:#fcf7e7;}.cls-23{fill:#f5e6d6;}.cls-24{fill:#f5e9d9;}.cls-25{fill:#ef591d;}.cls-26{fill:#f6e9d9;}.cls-27{fill:#fbfbfb;}.cls-28{fill:#fbf2df;}.cls-29{fill:#f8f0dd;}.cls-30{fill:#020204;}.cls-31{fill:#040304;}.cls-32{fill:#f3e6d5;}.cls-33{fill:#f7e9d8;}</style></defs><title>NTS-logo</title><g id="Layer_2" data-name="Layer 2"><g id="Layer_1-2" data-name="Layer 1"><path class="cls-1" d="M72.17,3.55A67.76,67.76,0,0,1,100.22.31a58.76,58.76,0,0,1,27.14,9.9,65.27,65.27,0,0,1,19.58,21.57c.2.26.3.73.71.73,4.12.62,8.23,1.34,12.37,1.82a5.15,5.15,0,0,1,3.74,1.77A7.29,7.29,0,0,1,165,40.32q0,14.74,0,29.48a7.81,7.81,0,0,1-.74,4A8.11,8.11,0,0,1,161,76.13c-.64,2.63-.78,5.75-3,7.65C155.16,86,151.4,86.42,147.91,87a55.86,55.86,0,0,1-12.06,16.87A63.2,63.2,0,0,1,115,117.29a56.49,56.49,0,0,1-13.21,3.5,30.94,30.94,0,0,1-4.48.62H90.59a38.32,38.32,0,0,1-4.4-.55,67.06,67.06,0,0,1-13.12-3.07,66,66,0,0,1-13.07-6,4.22,4.22,0,0,0-1.73-.7c-2-.16-4.08-.07-6-.77a40.56,40.56,0,0,1-4.34-2.13,5,5,0,0,0-1.8-.27c-5.48-.33-11-.53-16.39-1.71-1.1-.21-2.25-.65-3.35-.23-2.66.83-5.51,1.8-8.31,1-2-.44-3.46-1.87-5.26-2.65-3.44-.63-7.19-.44-10.26-2.37A5.23,5.23,0,0,1,.28,97.14c.11-3.48-.77-7,.12-10.44a24.53,24.53,0,0,1,4.65-8.52,6,6,0,0,0,1.46-2.44C7.16,73,7.9,70.13,9.81,68c2.78-3.12,6.56-5.06,10.3-6.77,0-2.16-.19-4.39.47-6.49.59-1.78,2.09-3,3.38-4.24.67-2,1.07-4.18,2.48-5.82a16.78,16.78,0,0,1,5-3.54c1.32-.65,1.9-2.09,2.81-3.16,1-1.25,2.38-2.05,3.46-3.19a22.21,22.21,0,0,0,1.77-3.21A60.18,60.18,0,0,1,72.17,3.55ZM67,7.21A59.47,59.47,0,0,0,37.83,38.05a20,20,0,0,0-3.28,3.54c-1.17,1.46-3.09,1.94-4.45,3.15C28,46.62,27,49.41,26.32,52.11c-1.31.83-2.94,1.6-3.4,3.21a27.39,27.39,0,0,0-.36,7.51c-4.36,1.41-8.63,3.7-11.44,7.41-1.47,1.91-1.62,4.4-2,6.69-.08.89-.89,1.42-1.47,2a12,12,0,0,0-3.35,4.74c-.54,1.33-.68,2.76-1.12,4.12a12.41,12.41,0,0,0-.8,3.43c0,1.59.53,3.15.4,4.76-.05,1.26-.14,2.75.82,3.73a8.8,8.8,0,0,0,3.76,1.62c1.94.57,4,.24,6,.37,1.1,0,1.9.91,2.76,1.47a9,9,0,0,0,8.67,1,9.62,9.62,0,0,1,7.77.43,42.83,42.83,0,0,0,16.5.6,10,10,0,0,0,8.68,3.39,58.11,58.11,0,0,0,23.13,10.35,60.27,60.27,0,0,0,30.25-1.51,59.51,59.51,0,0,0,34-27.58A22.89,22.89,0,0,0,147.81,84a9.08,9.08,0,0,0,4.68-.38c1.46-.55,3.35-.4,4.36-1.78,1.41-2.32,1.32-5.14,1.34-7.75,1.19-.25,2.52-.17,3.55-.9.71-.48.61-1.45.67-2.19q0-15.69,0-31.39a4.39,4.39,0,0,0-.83-2.48q-7.34-1.07-14.69-2.18a59.45,59.45,0,0,0-20.18-23.37A60,60,0,0,0,67,7.21Z"/><path class="cls-1" d="M89.93,5.08c1.28,0,2.57,0,3.85-.06l0,1.15q-1.23,0-2.46,0c0,.54,0,1.08,0,1.62.76,0,1.53,0,2.3,0V8.92C92.93,9,92.16,9,91.4,9c0,.61,0,1.22,0,1.83L94,10.76v1.18L90,12C90,9.69,89.92,7.39,89.93,5.08Z"/><path class="cls-1" d="M84,5.63a11.73,11.73,0,0,1,3.39-.16c1.21.42,1.38,1.87,1.53,3s.29,2.73-.83,3.48a10.2,10.2,0,0,1-3.34.58C84.53,10.2,84.26,7.92,84,5.63Zm1.52.86c.17,1.62.34,3.24.53,4.85.53-.12,1.36-.07,1.48-.78a8.12,8.12,0,0,0-.34-3.49C87,6.34,86.13,6.42,85.54,6.49Z"/><path class="cls-1" d="M97.06,5.18l4.39.53c0,.38-.09.77-.13,1.16l-1.5-.18c-.24,1.9-.46,3.81-.7,5.71l-1.4-.18c.23-1.9.48-3.8.69-5.71l-1.49-.18C97,6,97,5.56,97.06,5.18Z"/><path class="cls-1" d="M81.21,6.16l1.4-.28,1.29,6.81-1.4.24C82.08,10.67,81.66,8.41,81.21,6.16Z"/><path class="cls-1" d="M102.51,5.89a23,23,0,0,1,3.17.79c1.39.67.93,3.11-.56,3.35.23.25.59.44.61.82,0,.91-.27,1.8-.27,2.71a3.09,3.09,0,0,0,.78-.87c1.07-1.66,2.2-3.3,3.26-5,.56.15,1.12.33,1.67.51-.14,2.38-.31,4.77-.47,7.15l-1.39-.47c0-.49.11-1,.16-1.48l-1.71-.58L107,14.13a17.92,17.92,0,0,0-3-.83c.09-.82.3-1.63.36-2.45-.12-.62-.87-.6-1.34-.77-.21,1-.43,1.91-.64,2.87L101,12.64C101.51,10.39,102,8.14,102.51,5.89Zm1.17,1.3-.45,2c.5,0,1.12.34,1.53-.09s.48-1.15,0-1.51A5.83,5.83,0,0,0,103.68,7.19ZM110,9.13l-1.61,2.7,1.25.42Z"/><path class="cls-1" d="M78.83,6.64l1.29-.37c.26,2.33.5,4.66.74,7-.51.15-1,.29-1.54.42-.66-1.47-1.35-2.93-2-4.39.11,1.62.39,3.23.59,4.84l-1.51.44c-1.06-2.09-2.12-4.18-3.15-6.28l1.29-.38c.73,1.55,1.44,3.1,2.16,4.65-.21-1.7-.43-3.39-.65-5.09l1.31-.38c.73,1.54,1.45,3.08,2.19,4.61C79.3,10,79,8.33,78.83,6.64Z"/><path class="cls-1" d="M70.9,9.33l1.18-.53c.93,2.12,1.86,4.23,2.77,6.34l-1.46.64Q71.63,13.92,69.9,12c.64,1.48,1.29,3,1.93,4.43L70.65,17q-1.4-3.17-2.78-6.34L69.36,10c1.14,1.23,2.3,2.44,3.43,3.66Z"/><path class="cls-1" d="M110.93,15.5c1-2.09,1.93-4.19,2.91-6.28l1.47.68c-.15,1.67-.32,3.33-.44,5,.64-1.43,1.31-2.86,2-4.29l1.17.55c-1,2.09-1.93,4.18-2.9,6.28l-1.45-.67c.15-1.7.34-3.4.46-5.1-.64,1.47-1.34,2.92-2,4.38Z"/><path class="cls-1" d="M65,12.1a2,2,0,0,1,2.47.74,10.14,10.14,0,0,1,1.84,3.48c.37,1.44-1.16,2.58-2.46,2.6-1,0-1.64-.91-2.13-1.67a7.31,7.31,0,0,1-1.33-3.11C63.26,13.15,64.14,12.43,65,12.1Zm0,1.16c-.58.37-.25,1.1,0,1.59a10.21,10.21,0,0,0,1.76,2.73A.8.8,0,0,0,68,16.77,11.49,11.49,0,0,0,66.55,14C66.22,13.46,65.62,12.75,65,13.26Z"/><path class="cls-1" d="M117.86,14.4a2.12,2.12,0,0,1,2.21-2A2.78,2.78,0,0,1,122.2,14c.25.57-.09,1.16-.27,1.69L120.78,15c0-.38.37-.92,0-1.2a.76.76,0,0,0-1.26.25c-.33.47.09,1,.35,1.33.44.65,1.09,1.29,1,2.14a2.11,2.11,0,0,1-2.18,1.88,3.37,3.37,0,0,1-2.34-1.47c-.4-.69,0-1.46.29-2.11l1.23.69c-.21.47-.55,1.18.06,1.52.64.57,1.58-.19,1.38-.94C118.9,16.13,117.85,15.49,117.86,14.4Z"/><path class="cls-1" d="M60.41,15.07c.4-.26.79-.53,1.18-.8L65.47,20l-1.18.79C63,18.88,61.71,17,60.41,15.07Z"/><path class="cls-1" d="M119.92,20.28q2-2.79,4.1-5.57a21.53,21.53,0,0,1,2.44,1.9c1.05,1.39-.62,3.72-2.28,3.19a6.32,6.32,0,0,1-1.5-.89l-1.62,2.2Zm3.38-2.21c.39.22.78.66,1.27.51a1.47,1.47,0,0,0,.87-1.09c0-.54-.56-.8-.87-1.13Z"/><path class="cls-1" d="M56.16,18.29l3.49-2.72c.24.3.48.6.71.91l-1.18.92c1.18,1.52,2.37,3,3.55,4.54l-1.11.86q-1.78-2.25-3.55-4.52l-1.19.92Z"/><path class="cls-1" d="M128.47,18.74a2.7,2.7,0,0,1,2.43,1.69c.41,1.24-.61,2.32-1.37,3.19s-1.72,2-3,1.79c-1.12-.31-2.27-1.42-2-2.67a6.43,6.43,0,0,1,1.66-2.46A4.42,4.42,0,0,1,128.47,18.74Zm0,1.39a9.68,9.68,0,0,0-1.8,1.76,3.25,3.25,0,0,0-.92,1.55.94.94,0,0,0,.76.77c.68-.07,1.13-.65,1.59-1.1a8.6,8.6,0,0,0,1.59-2.06A.8.8,0,0,0,128.46,20.13Z"/><path class="cls-1" d="M53.57,20.72c.41-.42.84-.82,1.27-1.22,2,1.28,4,2.53,6.06,3.82-.34.31-.67.64-1,.92a5.14,5.14,0,0,1-1.26-.77L57.26,24.7,58,26l-1.09,1C55.82,24.9,54.72,22.79,53.57,20.72Zm1.48.28c.53.9,1.07,1.8,1.61,2.69l1-.91Z"/><path class="cls-1" d="M127.59,26.67l5.15-4.61a24.06,24.06,0,0,1,2.12,2.51c.7,1.37-1.06,3-2.41,2.4.49,1.45-1.32,2-1.81,3.15l-1-1.17c.53-.65,1.24-1.14,1.72-1.83.23-.55-.38-.94-.64-1.35-.75.64-1.47,1.31-2.22,2Zm3.83-1.54c.32.3.58.7,1,.83a1.27,1.27,0,0,0,1.19-.88c.06-.53-.44-.89-.71-1.28Z"/><path class="cls-1" d="M50.69,23.67l.86-1c1.74,1.5,3.48,3,5.22,4.52l-1,1.2c-1.6-.6-3.18-1.24-4.77-1.86,1.21,1.06,2.43,2.1,3.64,3.15l-.85,1c-1.75-1.5-3.48-3-5.23-4.52l1.07-1.23,4.66,1.82Z"/><path class="cls-1" d="M135.29,26.69l.93-.67c.88,1.17,1.75,2.36,2.63,3.55l-.93.69-.9-1.21c-1.54,1.14-3.08,2.27-4.61,3.42l-.86-1.13,4.63-3.43C135.88,27.51,135.58,27.1,135.29,26.69Z"/><path class="cls-2" d="M67,7.21a59.79,59.79,0,0,1,79.9,27.73c-6.19-.91-12.39-1.85-18.59-2.73a48.68,48.68,0,0,0-9.51-8.68A45.47,45.47,0,0,0,61.4,28.4c-1.47.11-3.15-.29-4.44.63-1.08.85-1.1,2.3-1.17,3.55-1.65.21-3.3.36-4.95.56a30.17,30.17,0,0,0-13,4.91A59.47,59.47,0,0,1,67,7.21ZM89.93,5.08c0,2.31.1,4.61.1,6.92l4-.06V10.76l-2.59.05c0-.61,0-1.22,0-1.83.76,0,1.53,0,2.29-.06V7.78c-.77,0-1.54,0-2.3,0,0-.54,0-1.08,0-1.62q1.23,0,2.46,0l0-1.15C92.5,5,91.21,5.05,89.93,5.08ZM84,5.63c.24,2.29.51,4.57.75,6.86a10.2,10.2,0,0,0,3.34-.58c1.12-.75.93-2.31.83-3.48s-.32-2.54-1.53-3A11.73,11.73,0,0,0,84,5.63Zm13-.45c0,.38-.09.77-.14,1.15l1.49.18c-.21,1.91-.46,3.81-.69,5.71l1.4.18c.24-1.9.46-3.81.7-5.71l1.5.18c0-.39.08-.78.13-1.16Zm-15.85,1c.45,2.25.87,4.51,1.29,6.77l1.4-.24L82.61,5.88Zm21.3-.27c-.49,2.25-1,4.5-1.5,6.75l1.38.31c.21-1,.43-1.91.64-2.87.47.17,1.22.15,1.34.77-.06.82-.27,1.63-.36,2.45a17.92,17.92,0,0,1,3,.83l.78-1.28,1.71.58c0,.5-.11,1-.16,1.48l1.39.47c.16-2.38.33-4.77.47-7.15-.55-.18-1.11-.36-1.67-.51-1.06,1.67-2.19,3.31-3.26,5a3.09,3.09,0,0,1-.78.87c0-.91.3-1.8.27-2.71,0-.38-.38-.57-.61-.82,1.49-.24,1.95-2.68.56-3.35A23,23,0,0,0,102.51,5.89Zm-23.68.75c.21,1.69.47,3.37.68,5.06-.74-1.53-1.46-3.07-2.19-4.61L76,7.47c.22,1.7.44,3.39.65,5.09-.72-1.55-1.43-3.1-2.16-4.65l-1.29.38c1,2.1,2.09,4.19,3.15,6.28l1.51-.44c-.2-1.61-.48-3.22-.59-4.84.69,1.46,1.38,2.92,2,4.39.52-.13,1-.27,1.54-.42-.24-2.33-.48-4.66-.74-7ZM70.9,9.33l1.89,4.33c-1.13-1.22-2.29-2.43-3.43-3.66l-1.49.64q1.38,3.18,2.78,6.34l1.18-.52c-.64-1.47-1.29-3-1.93-4.43q1.74,1.89,3.49,3.75l1.46-.64C73.94,13,73,10.92,72.08,8.8Zm40,6.17,1.19.54c.66-1.46,1.36-2.91,2-4.38-.12,1.7-.31,3.4-.46,5.1l1.45.67c1-2.1,1.93-4.19,2.9-6.28l-1.17-.55c-.66,1.43-1.33,2.86-2,4.29.12-1.66.29-3.32.44-5l-1.47-.68C112.86,11.31,111.91,13.41,110.93,15.5ZM65,12.1c-.83.33-1.71,1.05-1.61,2a7.31,7.31,0,0,0,1.33,3.11c.49.76,1.13,1.66,2.13,1.67,1.3,0,2.83-1.16,2.46-2.6a10.14,10.14,0,0,0-1.84-3.48A2,2,0,0,0,65,12.1Zm52.89,2.3c0,1.09,1,1.73,1.42,2.66.2.75-.74,1.51-1.38.94-.61-.34-.27-1.05-.06-1.52l-1.23-.69c-.3.65-.69,1.42-.29,2.11a3.37,3.37,0,0,0,2.34,1.47,2.11,2.11,0,0,0,2.18-1.88c.08-.85-.57-1.49-1-2.14-.26-.38-.68-.86-.35-1.33a.76.76,0,0,1,1.26-.25c.41.28,0,.82,0,1.2l1.15.67c.18-.53.52-1.12.27-1.69a2.78,2.78,0,0,0-2.13-1.57A2.12,2.12,0,0,0,117.86,14.4Zm-57.45.67c1.3,1.9,2.6,3.81,3.88,5.72L65.47,20l-3.88-5.73C61.2,14.54,60.81,14.81,60.41,15.07Zm59.51,5.21,1.14.83,1.62-2.2a6.32,6.32,0,0,0,1.5.89c1.66.53,3.33-1.8,2.28-3.19a21.53,21.53,0,0,0-2.44-1.9Q122,17.49,119.92,20.28Zm-63.76-2,.72.91,1.19-.92q1.77,2.26,3.55,4.52l1.11-.86c-1.18-1.52-2.37-3-3.55-4.54l1.18-.92c-.23-.31-.47-.61-.71-.91Zm72.31.45a4.42,4.42,0,0,0-2.27,1.54,6.43,6.43,0,0,0-1.66,2.46c-.29,1.25.86,2.36,2,2.67,1.29.19,2.21-1,3-1.79s1.78-1.95,1.37-3.19A2.7,2.7,0,0,0,128.47,18.74Zm-74.9,2c1.15,2.07,2.25,4.18,3.37,6.27L58,26l-.77-1.28,1.34-1.23a5.14,5.14,0,0,0,1.26.77c.37-.28.7-.61,1-.92-2-1.29-4-2.54-6.06-3.82C54.41,19.9,54,20.3,53.57,20.72Zm74,6,.92,1.06c.75-.65,1.47-1.32,2.22-2,.26.41.87.8.64,1.35-.48.69-1.19,1.18-1.72,1.83l1,1.17c.49-1.13,2.3-1.7,1.81-3.15,1.35.59,3.11-1,2.41-2.4a24.06,24.06,0,0,0-2.12-2.51Zm-76.9-3,3.57,3.09L49.6,24.94l-1.07,1.23c1.75,1.5,3.48,3,5.23,4.52l.85-1c-1.21-1.05-2.43-2.09-3.64-3.15,1.59.62,3.17,1.26,4.77,1.86l1-1.2c-1.74-1.52-3.48-3-5.22-4.52Zm84.6,3c.29.41.59.82.89,1.22l-4.63,3.43.86,1.13c1.53-1.15,3.07-2.28,4.61-3.42l.9,1.21.93-.69c-.88-1.19-1.75-2.38-2.63-3.55Z"/><path class="cls-2" d="M85.54,6.49c.59-.07,1.46-.15,1.67.58a8.12,8.12,0,0,1,.34,3.49c-.12.71-1,.66-1.48.78C85.88,9.73,85.71,8.11,85.54,6.49Z"/><path class="cls-2" d="M103.68,7.19a5.83,5.83,0,0,1,1.09.37c.47.36.31,1.1,0,1.51s-1,.13-1.53.09Z"/><path class="cls-2" d="M110,9.13l-.36,3.12-1.25-.42Z"/><path class="cls-2" d="M65,13.26c.63-.51,1.23.2,1.56.7A11.49,11.49,0,0,1,68,16.77a.8.8,0,0,1-1.27.81A10.21,10.21,0,0,1,65,14.85C64.74,14.36,64.41,13.63,65,13.26Z"/><path class="cls-2" d="M123.3,18.07l1.27-1.71c.31.33.89.59.87,1.13a1.47,1.47,0,0,1-.87,1.09C124.08,18.73,123.69,18.29,123.3,18.07Z"/><path class="cls-2" d="M128.46,20.13a.8.8,0,0,1,1.22.92,8.6,8.6,0,0,1-1.59,2.06c-.46.45-.91,1-1.59,1.1a.94.94,0,0,1-.76-.77,3.25,3.25,0,0,1,.92-1.55A9.68,9.68,0,0,1,128.46,20.13Z"/><path class="cls-2" d="M55.05,21l2.56,1.78-1,.91C56.12,22.8,55.58,21.9,55.05,21Z"/><path class="cls-2" d="M131.42,25.13l1.5-1.33c.27.39.77.75.71,1.28a1.27,1.27,0,0,1-1.19.88C132,25.83,131.74,25.43,131.42,25.13Z"/><path class="cls-2" d="M137.3,83.45a29.86,29.86,0,0,0,4.95-1c.45-.17.78.27,1.15.45A9.34,9.34,0,0,0,147.81,84a22.89,22.89,0,0,1-2.68,5.84,59.51,59.51,0,0,1-34,27.58,60.27,60.27,0,0,1-30.25,1.51,58.11,58.11,0,0,1-23.13-10.35c1.83-.29,3.91-.49,5.23-1.95,1.27-1.23,1.8-3,2.6-4.48,1.83-.7,3.7-1.28,5.55-1.93a45.5,45.5,0,0,0,57.83-11.82c1.19-1.62,2.37-3.25,3.46-5a19.91,19.91,0,0,0,3.7.11,3.72,3.72,0,0,0-1.82,2.89,3,3,0,0,0,1.43,2.23,15.44,15.44,0,0,0,3.06,1.75,2.68,2.68,0,0,0,2.59-.08,3.71,3.71,0,0,0,1.38-2.47,2.89,2.89,0,0,0-1.47-2.39A13.16,13.16,0,0,0,137.3,83.45Zm-6.12,7.27c-.19,1.24.78,2.22,1.64,3a10.35,10.35,0,0,0,3.44,2.1,2.27,2.27,0,0,0,2.61-2.84l.54.45.76-1-3.6-2.7-1.63,2.19,1,.75.67-.89c.52.42,1.3.84,1.24,1.63a.83.83,0,0,1-1.12.78A10.22,10.22,0,0,1,133.5,92c-.49-.45-1.22-1.21-.69-1.89s1.19-.16,1.71.07l.95-1.29a2.75,2.75,0,0,0-2.29-.6A3.36,3.36,0,0,0,131.18,90.72Zm-2.09,2.33c-1,.8-1.73,1.79-2.62,2.68l6.06,5.71c.38-.42.76-.82,1.15-1.23-.85-.81-1.7-1.62-2.56-2.42.45-.39.87-1.17,1.57-.93.88.5,1.5,1.35,2.38,1.86.43-.45.86-.9,1.3-1.34-1.14-.3-1.73-1.44-2.77-1.9a1.36,1.36,0,0,0-1.3.18C133.16,93.92,130.63,91.8,129.09,93.05Zm-5.6,5.2c1.23,2.59,2.47,5.18,3.69,7.77l1.35-1.14-.84-1.58c.55-.48,1.11-1,1.67-1.42.47.37.95.73,1.43,1.09l1.35-1.14q-3.54-2.46-7-4.93Zm-4.66,4.6a9.55,9.55,0,0,0,2,3.77c.67.88,1.6,1.88,2.83,1.67a3.49,3.49,0,0,0,2.34-1.68c.52-1.09-.15-2.23-.71-3.16l-1.41,1a3.7,3.7,0,0,1,.72,1.78c-.14.51-.81,1-1.29.59a7.89,7.89,0,0,1-1.86-2.2,6.09,6.09,0,0,1-1.07-2.2.86.86,0,0,1,1.37-.7,6.6,6.6,0,0,1,.81.86c.45-.32.92-.63,1.38-.94-.6-.86-1.51-1.83-2.68-1.53S118.68,101.44,118.83,102.85Zm-55.54,6.58,1.6.84c.38-.45.77-.92,1.16-1.37l1.91,1c-.17.58-.32,1.16-.48,1.73l1.6.84L71,104l-1.86-1C67.18,105.18,65.24,107.31,63.29,109.43Zm47.6-3.72c1.17,2.53,2.35,5.06,3.52,7.58l1.57-.73c-.49-1.07-1-2.13-1.48-3.19.58-.22,1.35-.83,1.85-.17s.84,1.73,1.42,2.5c.61-.25,1.2-.54,1.81-.8-1.36-.76-1.2-3.37-3.16-3.14,1.35-1.3-.17-4.12-2-3.59A36.57,36.57,0,0,0,110.89,105.71Zm-38.32-.85c-1,2.6-2,5.19-3,7.79a21.41,21.41,0,0,0,3.71,1.28c1.94.31,3.39-2.72,1.7-3.89,1.73,0,2.61-2.66,1.17-3.66A24.9,24.9,0,0,0,72.57,104.86Zm36.63,1.43c.57,1.75,1.17,3.5,1.76,5.25a3.08,3.08,0,0,1,.23,1.27.89.89,0,0,1-1.49.44,4,4,0,0,1-.62-1.33q-.83-2.51-1.68-5l-1.64.54c.65,1.88,1.24,3.79,1.91,5.66a2.38,2.38,0,0,0,1.74,1.75,3.63,3.63,0,0,0,3-1.09,2.59,2.59,0,0,0,.23-2.53c-.61-1.83-1.24-3.65-1.84-5.49ZM78.31,107.5c-1.3.83-1.56,2.51-2,3.89s-.6,2.84.5,3.78a3.45,3.45,0,0,0,3.27.52c1.12-.61,1.46-2,1.81-3.1.32-1.31.79-2.8.15-4.08A3.22,3.22,0,0,0,78.31,107.5Zm24.28.49a2.24,2.24,0,0,0-1.61,1.53,8.85,8.85,0,0,0,.37,4c.29,1,.67,2.28,1.75,2.73,1.49.5,3.76-.21,3.88-2a11.27,11.27,0,0,0-1.09-5.3A2.55,2.55,0,0,0,102.59,108Zm-20.46,6a2.5,2.5,0,0,0,.73,2.48,3.79,3.79,0,0,0,2.77.54,2.25,2.25,0,0,0,1.72-1.9c.28-1.58.46-3.17.72-4.75l1.7.07c-.13,2.3-.18,4.59-.31,6.89l1.7.11c.1-2.31.22-4.61.27-6.92l1.85,0c0-.46,0-.92,0-1.38-2.26-.14-4.53-.07-6.77-.43-.3,2-.56,4-.88,5.94-.07.51-.39,1.18-1,1.06-.67,0-1-.69-.85-1.25.26-2,.6-4,.85-6l-1.7-.26C82.7,110.16,82.4,112.08,82.13,114Zm17-5.27c-.27,1.07-.5,2.16-.82,3.22-.48-1-.93-2-1.41-3l-1.91.22c.71,1.32,1.45,2.62,2.19,3.93s.57,2.76.84,4.14l1.71-.19c-.08-1.08-.29-2.16-.31-3.24.45-1.78,1.07-3.51,1.57-5.28C100.38,108.6,99.77,108.66,99.15,108.74Z"/><path class="cls-2" d="M136.35,85.11a3.65,3.65,0,0,1,2.17.7,10.07,10.07,0,0,1,2.55,1.78.94.94,0,0,1-.77,1.52,6.68,6.68,0,0,1-2.19-1,8,8,0,0,1-2.19-1.59A1,1,0,0,1,136.35,85.11Z"/><path class="cls-2" d="M129.7,94.39a1.4,1.4,0,0,1,1.43,1c.19.69-.48,1.15-.85,1.62l-1.74-1.63A3.6,3.6,0,0,1,129.7,94.39Z"/><path class="cls-2" d="M125.22,98.69l3,2.32L127,102Z"/><path class="cls-2" d="M67,107.77l2.36-2.83-1,3.55Z"/><path class="cls-2" d="M113,106.15a3.83,3.83,0,0,1,1.38-.47,1.41,1.41,0,0,1,1,1.47c-.12.66-.86.84-1.35,1.14C113.66,107.58,113.33,106.86,113,106.15Z"/><path class="cls-2" d="M73,108.7c.24-.68.5-1.35.77-2,.44.23,1,.33,1.29.79a1.19,1.19,0,0,1-.83,1.53A5.67,5.67,0,0,1,73,108.7Z"/><path class="cls-2" d="M79.29,108.71a1,1,0,0,1,1.46.81A14.23,14.23,0,0,1,80,113c-.22.58-.39,1.36-1.06,1.58a1,1,0,0,1-1.2-1,13.87,13.87,0,0,1,.66-3.17A3.51,3.51,0,0,1,79.29,108.71Z"/><path class="cls-2" d="M103.08,109.21a.9.9,0,0,1,1.23.37,13.36,13.36,0,0,1,1,3.46,2.63,2.63,0,0,1-.1,1.71,1,1,0,0,1-1.62-.13,13.45,13.45,0,0,1-1-3.65C102.52,110.38,102.39,109.5,103.08,109.21Z"/><path class="cls-2" d="M72.52,109.79c.5.25,1.17.36,1.43.92a1.53,1.53,0,0,1-.72,1.69,3,3,0,0,1-1.6-.31C71.92,111.32,72.22,110.56,72.52,109.79Z"/><path class="cls-3" d="M61.4,28.4a45.47,45.47,0,0,1,57.39-4.87,48.68,48.68,0,0,1,9.51,8.68,4.61,4.61,0,0,1-2.75-1.66,43.88,43.88,0,0,0-23.18-13.2,46.91,46.91,0,0,0-13.94-.77A44.14,44.14,0,0,0,67,24.75c-1.14.83-2.2,1.77-3.31,2.64A4.81,4.81,0,0,1,61.4,28.4Z"/><path class="cls-4" d="M67,24.75a44.14,44.14,0,0,1,21.48-8.17,46.91,46.91,0,0,1,13.94.77,43.88,43.88,0,0,1,23.18,13.2,4.61,4.61,0,0,0,2.75,1.66c6.2.88,12.4,1.82,18.59,2.73q7.35,1.11,14.69,2.18a4.39,4.39,0,0,1,.83,2.48q0,15.7,0,31.39c-.06.74,0,1.71-.67,2.19-1,.73-2.36.65-3.55.9,0,2.61.07,5.43-1.34,7.75-1,1.38-2.9,1.23-4.36,1.78a9.08,9.08,0,0,1-4.68.38,9.34,9.34,0,0,1-4.41-1.14c-.37-.18-.7-.62-1.15-.45a29.86,29.86,0,0,1-4.95,1,13.16,13.16,0,0,1,4,2,2.89,2.89,0,0,1,1.47,2.39,3.71,3.71,0,0,1-1.38,2.47,2.68,2.68,0,0,1-2.59.08,15.44,15.44,0,0,1-3.06-1.75,3,3,0,0,1-1.43-2.23,3.72,3.72,0,0,1,1.82-2.89,19.91,19.91,0,0,1-3.7-.11l-1.5-.16A44.53,44.53,0,0,1,74,100.19a3.56,3.56,0,0,0-2.86,0c-1.85.65-3.72,1.23-5.55,1.93-.8,1.52-1.33,3.25-2.6,4.48-1.32,1.46-3.4,1.66-5.23,1.95A10,10,0,0,1,49,105.18a42.83,42.83,0,0,1-16.5-.6,9.62,9.62,0,0,0-7.77-.43,9,9,0,0,1-8.67-1c-.86-.56-1.66-1.43-2.76-1.47-2-.13-4,.2-5.95-.37A8.8,8.8,0,0,1,3.63,99.7c-1-1-.87-2.47-.82-3.73.13-1.61-.37-3.17-.4-4.76a12.41,12.41,0,0,1,.8-3.43c.44-1.36.58-2.79,1.12-4.12a12,12,0,0,1,3.35-4.74c.58-.57,1.39-1.1,1.47-2,.35-2.29.5-4.78,2-6.69,2.81-3.71,7.08-6,11.44-7.41a27.39,27.39,0,0,1,.36-7.51c.46-1.61,2.09-2.38,3.4-3.21.64-2.7,1.64-5.49,3.78-7.37,1.36-1.21,3.28-1.69,4.45-3.15a20,20,0,0,1,3.28-3.54,30.17,30.17,0,0,1,13-4.91c1.65-.2,3.3-.35,4.95-.56.07-1.25.09-2.7,1.17-3.55,1.29-.92,3-.52,4.44-.63a4.81,4.81,0,0,0,2.24-1C64.75,26.52,65.81,25.58,67,24.75Zm4.39-.1a27.33,27.33,0,0,0-4.89,3.52c7-.33,14-.44,21-.8a51.49,51.49,0,0,1,9,.08c8.83,1.4,17.68,2.63,26.52,4a20.31,20.31,0,0,0-2.15-2.2A41.79,41.79,0,0,0,92.72,18.72,41.36,41.36,0,0,0,71.34,24.65ZM57.92,30.42l0,3.67A52.63,52.63,0,0,0,44.5,36.77c-2.9,1.11-5.82,2.6-7.72,5.15-.42.53-.69,1.18-1.11,1.71-1.42,1-3.13,1.54-4.44,2.72a10.59,10.59,0,0,0-2.88,6.51l1.26.58A6.39,6.39,0,0,0,25,55.53a19.57,19.57,0,0,0-.51,7.19l2.16.55-1.52.24c-1,1.28-2.77,1.41-4.19,2a18.71,18.71,0,0,0-8.6,6.53c-1.05,2.15-1.14,4.59-1.45,6.92a11.76,11.76,0,0,0-4.81,5.7,31.06,31.06,0,0,0-.87,3.7,20,20,0,0,0-.7,2.11,9.83,9.83,0,0,0,.38,3.92c.2.68-.2,1.35-.23,2a2,2,0,0,0,1.1,2.31,18.52,18.52,0,0,0,4.26,1c.95.09,1.89-.18,2.84-.12s1.71.21,2.57.34a9.06,9.06,0,0,0,4.36,2.7,7.45,7.45,0,0,0,4.76-.53,5.54,5.54,0,0,1,2.58-.72c1.61.11,3.19.42,4.78.57a3.22,3.22,0,0,1,2,.93,47.3,47.3,0,0,0,16.4.05c1.2,2.85,4.62,4,7.49,3.61,1.33-.25,2.87-.32,3.84-1.38A13,13,0,0,0,64.2,98.8a22.26,22.26,0,0,0,.15-6.91c-.29-2.72-1.21-5.59-3.43-7.35a4.94,4.94,0,0,1,2,.16,7.24,7.24,0,0,1,1.61,3.53c.89,3.92.74,8,.62,12,6.82-2.28,13.63-4.62,20.48-6.83,2.23,1.32,4.9,1,7.37,1.32a3.27,3.27,0,0,0,3.16-1.27c1.29,0,2.69.27,3.88-.36a8.07,8.07,0,0,0,1.64-5.17c0-2.48.25-5-.6-7.44,9.61-1.33,19.2-2.79,28.8-4.22.24,1.53.1,3.28,1.16,4.55.76.87,2.05.74,3.08.93,1.64.21,3.59.53,4.86-.81.92,0,2,.25,2.78-.35a20.49,20.49,0,0,0,1.19-3.14,23,23,0,0,0,1.48,3.71c1,1.06,2.65.69,4,.94s2.75.28,3.67-.78c1.11-.1,2.65.26,3.31-.89a13.75,13.75,0,0,0,.55-8c1.53-.19,3-.45,4.57-.68,0-10.92,0-21.84,0-32.76q-29.85-4.45-59.7-8.9A51.72,51.72,0,0,0,93,29.17C81.29,29.52,69.61,30.05,57.92,30.42Zm45.66,51.63c.46,4.26.32,8.91-2.09,12.61-1.78.53-3.66.64-5.38,1.34a6.81,6.81,0,0,1-2.9.61,42.52,42.52,0,0,1-7.11-.88,5.44,5.44,0,0,0-3.28.53c-2.24.84-4.55,1.52-6.81,2.33a40.92,40.92,0,0,0,12.57,3.35,42.31,42.31,0,0,0,23.9-4.52,42.94,42.94,0,0,0,16.67-15.7c-.4-1.06-.74-2.13-1.08-3.21C119.89,79.6,111.74,80.84,103.58,82.05Zm32.77,3.06a1,1,0,0,0-.43,1.45,8,8,0,0,0,2.19,1.59,6.68,6.68,0,0,0,2.19,1,.94.94,0,0,0,.77-1.52,10.07,10.07,0,0,0-2.55-1.78A3.65,3.65,0,0,0,136.35,85.11Z"/><path class="cls-4" d="M131.18,90.72a3.36,3.36,0,0,1,2-2.39,2.75,2.75,0,0,1,2.29.6l-.95,1.29c-.52-.23-1.26-.63-1.71-.07s.2,1.44.69,1.89a10.22,10.22,0,0,0,3.23,2.1.83.83,0,0,0,1.12-.78c.06-.79-.72-1.21-1.24-1.63l-.67.89-1-.75,1.63-2.19,3.6,2.7-.76,1-.54-.45a2.27,2.27,0,0,1-2.61,2.84,10.35,10.35,0,0,1-3.44-2.1C132,92.94,131,92,131.18,90.72Z"/><path class="cls-4" d="M129.09,93.05c1.54-1.25,4.07.87,3.21,2.61a1.36,1.36,0,0,1,1.3-.18c1,.46,1.63,1.6,2.77,1.9-.44.44-.87.89-1.3,1.34-.88-.51-1.5-1.36-2.38-1.86-.7-.24-1.12.54-1.57.93.86.8,1.71,1.61,2.56,2.42-.39.41-.77.81-1.15,1.23l-6.06-5.71C127.36,94.84,128.13,93.85,129.09,93.05Zm.61,1.34a3.6,3.6,0,0,0-1.16,1L130.28,97c.37-.47,1-.93.85-1.62A1.4,1.4,0,0,0,129.7,94.39Z"/><path class="cls-4" d="M123.49,98.25l1.6-1.35q3.51,2.47,7,4.93L130.79,103c-.48-.36-1-.72-1.43-1.09-.56.47-1.12.94-1.67,1.42l.84,1.58L127.18,106C126,103.43,124.72,100.84,123.49,98.25Zm1.73.44L127,102l1.22-1Z"/><path class="cls-4" d="M118.83,102.85c-.15-1.41,1.19-2.47,2.43-2.79s2.08.67,2.68,1.53c-.46.31-.93.62-1.38.94a6.6,6.6,0,0,0-.81-.86.86.86,0,0,0-1.37.7,6.09,6.09,0,0,0,1.07,2.2,7.89,7.89,0,0,0,1.86,2.2c.48.37,1.15-.08,1.29-.59a3.7,3.7,0,0,0-.72-1.78l1.41-1c.56.93,1.23,2.07.71,3.16a3.49,3.49,0,0,1-2.34,1.68c-1.23.21-2.16-.79-2.83-1.67A9.55,9.55,0,0,1,118.83,102.85Z"/><path class="cls-4" d="M63.29,109.43c1.95-2.12,3.89-4.25,5.85-6.37L71,104l-1.92,8.43-1.6-.84c.16-.57.31-1.15.48-1.73l-1.91-1c-.39.45-.78.92-1.16,1.37ZM67,107.77l1.37.72,1-3.55Z"/><path class="cls-4" d="M110.89,105.71a36.57,36.57,0,0,1,3.51-1.54c1.85-.53,3.37,2.29,2,3.59,2-.23,1.8,2.38,3.16,3.14-.61.26-1.2.55-1.81.8-.58-.77-.86-1.72-1.42-2.5s-1.27,0-1.85.17c.49,1.06,1,2.12,1.48,3.19l-1.57.73C113.24,110.77,112.06,108.24,110.89,105.71Zm2.11.44c.33.71.66,1.43,1,2.14.49-.3,1.23-.48,1.35-1.14a1.41,1.41,0,0,0-1-1.47A3.83,3.83,0,0,0,113,106.15Z"/><path class="cls-4" d="M72.57,104.86a24.9,24.9,0,0,1,3.56,1.52c1.44,1,.56,3.63-1.17,3.66,1.69,1.17.24,4.2-1.7,3.89a21.41,21.41,0,0,1-3.71-1.28C70.55,110.05,71.56,107.46,72.57,104.86ZM73,108.7a5.67,5.67,0,0,0,1.23.3,1.19,1.19,0,0,0,.83-1.53c-.28-.46-.85-.56-1.29-.79C73.46,107.35,73.2,108,73,108.7Zm-.44,1.09c-.3.77-.6,1.53-.89,2.3a3,3,0,0,0,1.6.31,1.53,1.53,0,0,0,.72-1.69C73.69,110.15,73,110,72.52,109.79Z"/><path class="cls-4" d="M109.2,106.29l1.64-.54c.6,1.84,1.23,3.66,1.84,5.49a2.59,2.59,0,0,1-.23,2.53,3.63,3.63,0,0,1-3,1.09,2.38,2.38,0,0,1-1.74-1.75c-.67-1.87-1.26-3.78-1.91-5.66l1.64-.54q.85,2.5,1.68,5a4,4,0,0,0,.62,1.33.89.89,0,0,0,1.49-.44,3.08,3.08,0,0,0-.23-1.27C110.37,109.79,109.77,108,109.2,106.29Z"/><path class="cls-4" d="M78.31,107.5a3.22,3.22,0,0,1,3.78,1c.64,1.28.17,2.77-.15,4.08-.35,1.14-.69,2.49-1.81,3.1a3.45,3.45,0,0,1-3.27-.52c-1.1-.94-.77-2.55-.5-3.78S77,108.33,78.31,107.5Zm1,1.21a3.51,3.51,0,0,0-.87,1.7,13.87,13.87,0,0,0-.66,3.17,1,1,0,0,0,1.2,1c.67-.22.84-1,1.06-1.58a14.23,14.23,0,0,0,.73-3.46A1,1,0,0,0,79.29,108.71Z"/><path class="cls-4" d="M102.59,108a2.55,2.55,0,0,1,3.3,1,11.27,11.27,0,0,1,1.09,5.3c-.12,1.8-2.39,2.51-3.88,2-1.08-.45-1.46-1.69-1.75-2.73a8.85,8.85,0,0,1-.37-4A2.24,2.24,0,0,1,102.59,108Zm.49,1.22c-.69.29-.56,1.17-.49,1.76a13.45,13.45,0,0,0,1,3.65,1,1,0,0,0,1.62.13,2.63,2.63,0,0,0,.1-1.71,13.36,13.36,0,0,0-1-3.46A.9.9,0,0,0,103.08,109.21Z"/><path class="cls-4" d="M82.13,114c.27-1.93.57-3.85.83-5.78l1.7.26c-.25,2-.59,4-.85,6-.12.56.18,1.29.85,1.25.62.12.94-.55,1-1.06.32-2,.58-4,.88-5.94,2.24.36,4.51.29,6.77.43,0,.46,0,.92,0,1.38l-1.85,0c-.05,2.31-.17,4.61-.27,6.92l-1.7-.11c.13-2.3.18-4.59.31-6.89l-1.7-.07c-.26,1.58-.44,3.17-.72,4.75a2.25,2.25,0,0,1-1.72,1.9,3.79,3.79,0,0,1-2.77-.54A2.5,2.5,0,0,1,82.13,114Z"/><path class="cls-4" d="M99.15,108.74c.62-.08,1.23-.14,1.86-.2-.5,1.77-1.12,3.5-1.57,5.28,0,1.08.23,2.16.31,3.24l-1.71.19c-.27-1.38,0-2.93-.84-4.14s-1.48-2.61-2.19-3.93l1.91-.22c.48,1,.93,2,1.41,3C98.65,110.9,98.88,109.81,99.15,108.74Z"/><path class="cls-5" d="M71.34,24.65a41.36,41.36,0,0,1,21.38-5.93A41.79,41.79,0,0,1,120.9,29.24a20.31,20.31,0,0,1,2.15,2.2c-8.84-1.36-17.69-2.59-26.52-4a51.49,51.49,0,0,0-9-.08c-7,.36-14,.47-21,.8A27.33,27.33,0,0,1,71.34,24.65Z"/><path class="cls-5" d="M103.58,82.05c8.16-1.21,16.31-2.45,24.49-3.54.34,1.08.68,2.15,1.08,3.21a42.94,42.94,0,0,1-16.67,15.7,42.31,42.31,0,0,1-23.9,4.52A40.92,40.92,0,0,1,76,98.59c2.26-.81,4.57-1.49,6.81-2.33a5.44,5.44,0,0,1,3.28-.53,42.52,42.52,0,0,0,7.11.88,6.81,6.81,0,0,0,2.9-.61c1.72-.7,3.6-.81,5.38-1.34C103.9,91,104,86.31,103.58,82.05Z"/><path class="cls-6" d="M57.92,30.42c11.69-.37,23.37-.9,35.05-1.25a51.72,51.72,0,0,1,7.83.89q29.85,4.43,59.7,8.9c0,10.92,0,21.84,0,32.76-1.53.23-3,.49-4.57.68a13.75,13.75,0,0,1-.55,8c-.66,1.15-2.2.79-3.31.89-.92,1.06-2.41,1-3.67.78s-3,.12-4-.94a23,23,0,0,1-1.48-3.71,20.49,20.49,0,0,1-1.19,3.14c-.79.6-1.86.3-2.78.35-1.27,1.34-3.22,1-4.86.81-1-.19-2.32-.06-3.08-.93-1.06-1.27-.92-3-1.16-4.55-9.6,1.43-19.19,2.89-28.8,4.22.85,2.39.64,5,.6,7.44A8.07,8.07,0,0,1,100,93.05c-1.19.63-2.59.34-3.88.36A3.27,3.27,0,0,1,93,94.68c-2.47-.32-5.14,0-7.37-1.32-6.85,2.21-13.66,4.55-20.48,6.83.12-4,.27-8-.62-12a7.24,7.24,0,0,0-1.61-3.53,4.94,4.94,0,0,0-2-.16c2.22,1.76,3.14,4.63,3.43,7.35a22.26,22.26,0,0,1-.15,6.91,13,13,0,0,1-2.61,6.44c-1,1.06-2.51,1.13-3.84,1.38-2.87.37-6.29-.76-7.49-3.61a47.3,47.3,0,0,1-16.4-.05,3.22,3.22,0,0,0-2-.93c-1.59-.15-3.17-.46-4.78-.57a5.54,5.54,0,0,0-2.58.72,7.45,7.45,0,0,1-4.76.53A9.06,9.06,0,0,1,15.4,100c-.86-.13-1.71-.29-2.57-.34s-1.89.21-2.84.12a18.52,18.52,0,0,1-4.26-1,2,2,0,0,1-1.1-2.31c0-.69.43-1.36.23-2a9.83,9.83,0,0,1-.38-3.92,20,20,0,0,1,.7-2.11,31.06,31.06,0,0,1,.87-3.7A11.76,11.76,0,0,1,10.86,79c.31-2.33.4-4.77,1.45-6.92a18.71,18.71,0,0,1,8.6-6.53c1.42-.61,3.15-.74,4.19-2l1.52-.24-2.16-.55A19.57,19.57,0,0,1,25,55.53a6.39,6.39,0,0,1,4.64-2.09l-1.26-.58a10.59,10.59,0,0,1,2.88-6.51c1.31-1.18,3-1.73,4.44-2.72.42-.53.69-1.18,1.11-1.71,1.9-2.55,4.82-4,7.72-5.15A52.63,52.63,0,0,1,58,34.09Zm-.16,4.73a39.52,39.52,0,0,0-14.24,3,14.68,14.68,0,0,0-5.82,4.61c1.8-.57,3.49-1.43,5.25-2.1a3.65,3.65,0,0,0,1.33-1A6.27,6.27,0,0,1,46.86,38a14.17,14.17,0,0,1,2.6-.2c3.92-.19,7.84-.64,11.77-.59-1.53,1.06-2.87,2.44-4.62,3.16l.52.23c1.17-.59,2.37-1.09,3.5-1.76a4.94,4.94,0,0,1,4.4-.13,19.07,19.07,0,0,1,7.49-3.83c1.83-.44,3.74-.44,5.59-.78A126,126,0,0,0,57.76,35.15Zm31,.55.28-.65c-1.76.05-3.74,1-4.14,2.89-.14,2.33,0,4.68-.08,7l1.4-.1a36.41,36.41,0,0,1,.17-6.44c.25-.92,1.2-1.34,2-1.78l.13-.3a30.32,30.32,0,0,0,1.46,3,7.62,7.62,0,0,0,1.25-2,8,8,0,0,0-.75-2.69ZM69.47,40.18c-3,1.17-6.09,2.24-9.19,3.18a15.51,15.51,0,0,0,7-1.32,40.14,40.14,0,0,1,8-2.67c1.39-.22,2.8-.27,4.17-.57A23.38,23.38,0,0,0,69.47,40.18Zm26.17-.69c.89,10.06,1.69,20.14,2.6,30.21,2.21-.19,4.4-.51,6.62-.56.67-4.68.82-9.42,1.56-14.1.47,4.59.75,9.2,1.47,13.75,2-.1,4-.25,6-.37.45-3.4.51-6.84.87-10.26.36-5.66.93-11.3,1.26-17-1.56-.08-3.11-.18-4.67-.27-.16,3.62-.66,7.22-.76,10.84A72.9,72.9,0,0,1,110,59.3c-.16-6.22-.67-12.43-1-18.64-1.76-.13-3.53-.24-5.3-.36-.37,3.49-.62,7-1,10.47-.26,2.57-.06,5.18-.56,7.72-.44-6.16-.61-12.34-1.07-18.5A45.55,45.55,0,0,1,95.64,39.49ZM46.49,41.08c3.3,1.49,7,.78,10.33-.33-.28-.12-.54-.39-.87-.28C52.8,40.7,49.64,40.81,46.49,41.08Zm70.38,27.06c2.48-.2,5-.5,7.45-.63,0-1.73,0-3.44,0-5.16-1,0-2.07.09-3.1.09,0-1.86,0-3.72,0-5.58h2.61c0-1.63,0-3.26,0-4.89h-2.6c0-1.69,0-3.37,0-5,.92,0,1.84.06,2.76.12,0-1.68,0-3.35,0-5-2.37-.32-4.75-.44-7.12-.63Q116.87,54.76,116.87,68.14Zm13-24.46a7.68,7.68,0,0,0-1.16,3.75c-.1,4.45,0,8.89,0,13.34,0,1.88.18,3.95,1.42,5.47a3.82,3.82,0,0,0,5.89-.78c1.59-2.54,1.14-5.66,1.24-8.5h-3.59c0,2,0,4-.07,5.94l-1.09,0q-.06-7.74,0-15.5a1.54,1.54,0,0,1,.9-1.46,37.56,37.56,0,0,1,.25,7.19c1.2,0,2.41.06,3.61.07-.08-2.5.22-5.05-.42-7.5a4.72,4.72,0,0,0-3-3.43A3.43,3.43,0,0,0,129.83,43.68Zm9.54-.51c-.6,7.75-1.27,15.5-1.71,23.26,1.14-.15,2.29-.3,3.44-.42,0-1.24,0-2.48.11-3.71l1.15-.14c.1,1.26.08,2.52.16,3.79,1-.08,2.1-.1,3.15-.17-.5-7.37-1.18-14.72-1.67-22.09C142.45,43.58,140.91,43.43,139.37,43.17Zm6.8.81c0,7.21,0,14.42.05,21.63.95-.08,1.91-.11,2.87-.2,0-3.28-.08-6.56.06-9.84l.64.66c.32,3.05.06,6.12.16,9.18l2.59-.37c0-2.62,0-5.23,0-7.85a6,6,0,0,0-1-2.9,4,4,0,0,0,1-2.09c.13-2.5.2-5.13-.94-7.43A14.36,14.36,0,0,0,146.17,44Zm7.37.56c0,6.82,0,13.64,0,20.47,1.48-.12,3-.2,4.44-.28,0-1.35,0-2.7,0-4.06l-1.75,0c-.13-1.42-.14-2.85-.15-4.27l1.57,0V52.57l-1.41,0c0-1.25-.14-2.48-.18-3.72l1.8,0c0-1.33,0-2.66,0-4C156.43,44.72,155,44.64,153.54,44.54ZM34.5,46c-2.36.73-3.33,3.23-4.47,5.18a55.62,55.62,0,0,1,11.58-1.46c2-.1,4.11.19,6.06-.48,2.54-.74,4.72-2.36,7.31-2.95s5.08-.49,7.6-.92a106,106,0,0,0-15.74-.28C42.72,45.33,38.6,45.59,34.5,46Zm49.43-.7c.29,4.88.34,9.79.85,14.66.39-4.47.31-9,.45-13.45,1.19-.35,2.38-.68,3.53-1.14C87.15,45.26,85.54,45.32,83.93,45.32ZM53,52c-6.94.17-13.89.23-20.82.61a44.78,44.78,0,0,0-3.54,11.75c2.1,0,4.19-.16,6.29-.13a134.38,134.38,0,0,1,14,.05c2.44.14,4.9.15,7.33.51,1.75.24,3.73.17,5.1-1.09.4-3.44,1.31-6.83,1.29-10.3,0-.93-1-1.49-1.82-1.58C58.27,51.59,55.65,52,53,52Zm12.64.4c-.16.4-.33.8-.49,1.19a52.65,52.65,0,0,1,8.11,1,77.54,77.54,0,0,1-.45,8.2c-1.45.17-2.89.4-4.32.66a10.61,10.61,0,0,1,0-2.87c0-2,.14-4.06.13-6.09-1.17-.1-2.34-.2-3.52-.24-.58,3-1.24,6-1.6,9.06,1.52-.19,3-.38,4.56-.5l-.44.9a10.19,10.19,0,0,0-3.17.18c-.91.6-.67,1.82-.65,2.74,1-.06,2-.13,3-.26q-.62.44-1.23.9c.78-.07,1.55-.17,2.33-.26,0-1,.1-2,.13-3,1.61,0,3.22,0,4.83-.05,0,.59,0,1.18,0,1.77.81-.1,1.62-.22,2.44-.31-.28-4.4-.11-8.81-.42-13.2C71.79,52.08,68.73,52.25,65.66,52.38ZM27,54.51a54.07,54.07,0,0,0-.17,7.2c.82-2.58,1.52-5.2,2.39-7.77ZM15,72.57c5.46-.61,11-.12,16.42.29,1.26,0,2.61.41,3.8-.21a94.61,94.61,0,0,1,13.16-4.21,23.26,23.26,0,0,0-6.5.5,21.23,21.23,0,0,1-4,.79A21.44,21.44,0,0,1,33,69.2c-1.86.41-3.41,1.6-5.19,2.23a7.8,7.8,0,0,1-4.36-.11,20.81,20.81,0,0,1,3.3-3.53c-.43-.65-.85-1.31-1.26-2C21.37,66.73,17.27,68.89,15,72.57Zm12.62-4.71a19.16,19.16,0,0,0-2.09,2.75,8,8,0,0,0,3.81-.52c2.19-1,4.56-1.45,6.82-2.27C33.28,66.88,30.38,69,27.57,67.86Zm-13.36,6A15.31,15.31,0,0,0,13,79.29a56.35,56.35,0,0,0,.05,8.52,31.92,31.92,0,0,0,5.43.72c3.9.37,7.8.69,11.69,1.13a6.14,6.14,0,0,0,2.61-.38c.62-3.69.45-7.46.83-11.17a28.65,28.65,0,0,0,.12-3.59c-4-.8-8.09-.59-12.13-.75C19.16,73.75,16.68,73.65,14.21,73.83Zm63.18,2.31c0,.51,0,1,0,1.55l1.43,0c0-.55,0-1.11,0-1.66Zm-7.12.34c0,.71,0,1.43,0,2.14l2-.2c0-.7,0-1.39.06-2.08C71.64,76.37,71,76.43,70.27,76.48ZM7.38,87.12c.93-1.67,1.85-3.44,3.48-4.52l-.06-2.15A6.28,6.28,0,0,0,7.38,87.12Zm27.07,5.25c1.18.06,2.37.14,3.56.15.29-.89.57-1.79.84-2.69l-1.59-.23a11.65,11.65,0,0,1,3.18-4.09c2.25-1.91,5-3.13,7.52-4.59A21.19,21.19,0,0,0,34.45,92.37Zm40.93-7.56a2.06,2.06,0,0,0-1.5,1.09c-1.67.19-3.33.43-5,.69-.68-.76-1.73-.67-2.65-.67.25,1.12.49,2.24.74,3.36,7.82-1.86,15.7-3.49,23.53-5.3V82C85.46,82.93,80.43,83.89,75.38,84.81Zm24-2.87c-.88.92-.94,2.32-1.07,3.53,0,1.72-.06,3.64.94,5.13.57.69,1.23-.24,1.39-.79a12.35,12.35,0,0,0,.14-6.47C100.64,82.74,100.25,81.48,99.42,81.94Zm-4.5.49a2.94,2.94,0,0,0-1,1.83,14.35,14.35,0,0,0,0,6.12,3.11,3.11,0,0,0,1.06,2c.73.15,1-.73,1.23-1.26a13.56,13.56,0,0,0,0-7.42C96,83.14,95.63,82.3,94.92,82.43ZM50.49,89.27c-.3,1-.61,2-.91,2.94l2-.28-.51,1a27.25,27.25,0,0,0-5.63.37,46.5,46.5,0,0,1-7.37,0c0,.2-.11.61-.14.82a71.83,71.83,0,0,0,12-.79A7.19,7.19,0,0,0,53,92.56c.37-1.33.77-2.67,1-4C52.82,88.71,51.65,89,50.49,89.27Zm9.31-.52c-1.23.81-1.72,2.33-2.12,3.67a14.81,14.81,0,0,0,.35,8.79c.38.89,1.06,1.94,2.16,1.87,1.34-.54,2-2,2.39-3.26a14.64,14.64,0,0,0-.18-9.43C62,89.4,61,88.15,59.8,88.75Zm28.66.13c.13.35.27.69.42,1a7,7,0,0,0,3.75-1.31A19.42,19.42,0,0,0,88.46,88.88ZM6,89.72l.27,1c.71.12,1.43.22,2.14.29C8.15,89.88,6.92,89.78,6,89.72Zm2.37,1.47c2.38.13,4.71.64,7.07.89C22.68,93,30,93.62,37.29,94c0-.2,0-.6,0-.8-9-.78-18-1.31-26.87-2.59A1.53,1.53,0,0,0,8.34,91.19ZM5.71,93.32a11.55,11.55,0,0,0,1,1.69c-.32-1.33-.66-2.66-1-4A12.74,12.74,0,0,0,5.71,93.32Zm4.47-.49c.2,1.28.48,2.55.78,3.82,4.36.83,8.78,1.28,13.19,1.74a78.4,78.4,0,0,0,8.38.66c.19-1.31.73-2.55.81-3.87C25.59,94.69,17.9,93.65,10.18,92.83ZM68,93.69c.07.51.16,1,.24,1.54a10,10,0,0,0,4.27-.49c1.1-.36,2.49-.43,3.16-1.51C73.14,92.47,70.54,93.3,68,93.69ZM42.8,95.16c-.51,1.22-1,2.42-1.57,3.63,1.75-.05,3.49-.11,5.23-.31.46-1.17.93-2.33,1.44-3.48C46.19,95,44.5,95.15,42.8,95.16Zm2,4.68c-2.92.14-5.84,0-8.76-.08L34.85,102c4.38.27,8.81.8,13.17.08a5,5,0,0,0,3.32-2.79C49.13,99.28,47,99.74,44.75,99.84Z"/><path class="cls-7" d="M57.76,35.15a126,126,0,0,1,20.35-1c-1.85.34-3.76.34-5.59.78A19.07,19.07,0,0,0,65,38.71a4.94,4.94,0,0,0-4.4.13c-1.13.67-2.33,1.17-3.5,1.76l-.52-.23c1.75-.72,3.09-2.1,4.62-3.16-3.93-.05-7.85.4-11.77.59a14.17,14.17,0,0,0-2.6.2,6.27,6.27,0,0,0-2.58,1.63,3.65,3.65,0,0,1-1.33,1c-1.76.67-3.45,1.53-5.25,2.1a14.68,14.68,0,0,1,5.82-4.61A39.52,39.52,0,0,1,57.76,35.15Z"/><path class="cls-7" d="M46.49,41.08c3.15-.27,6.31-.38,9.46-.61.33-.11.59.16.87.28C53.52,41.86,49.79,42.57,46.49,41.08Z"/><path class="cls-8" d="M88.79,35.7l1.67-1a8,8,0,0,1,.75,2.69,7.62,7.62,0,0,1-1.25,2,30.32,30.32,0,0,1-1.46-3C88.6,36.13,88.69,35.92,88.79,35.7Z"/><path class="cls-9" d="M84.93,37.94c.4-1.85,2.38-2.84,4.14-2.89l-.28.65c-.1.22-.19.43-.29.64l-.13.3c-.75.44-1.7.86-2,1.78a36.41,36.41,0,0,0-.17,6.44l-1.4.1C84.89,42.62,84.79,40.27,84.93,37.94Z"/><path class="cls-9" d="M83.93,45.32c1.61,0,3.22-.06,4.83.07-1.15.46-2.34.79-3.53,1.14-.14,4.48-.06,9-.45,13.45C84.27,55.11,84.22,50.2,83.93,45.32Z"/><path class="cls-10" d="M69.47,40.18a23.38,23.38,0,0,1,10-1.38c-1.37.3-2.78.35-4.17.57a40.14,40.14,0,0,0-8,2.67,15.51,15.51,0,0,1-7,1.32C63.38,42.42,66.44,41.35,69.47,40.18Z"/><path class="cls-10" d="M27,54.51l2.22-.57c-.87,2.57-1.57,5.19-2.39,7.77A54.07,54.07,0,0,1,27,54.51Z"/><path class="cls-10" d="M7.38,87.12a6.28,6.28,0,0,1,3.42-6.67l.06,2.15C9.23,83.68,8.31,85.45,7.38,87.12Z"/><path class="cls-10" d="M8.34,91.19a1.53,1.53,0,0,1,2.1-.59c8.91,1.28,17.91,1.81,26.87,2.59,0,.2,0,.6,0,.8-7.31-.37-14.61-1-21.88-1.91C13.05,91.83,10.72,91.32,8.34,91.19Z"/><path class="cls-11" d="M95.64,39.49a45.55,45.55,0,0,0,5.48.5c.46,6.16.63,12.34,1.07,18.5.5-2.54.3-5.15.56-7.72.33-3.49.58-7,1-10.47,1.77.12,3.54.23,5.3.36.33,6.21.84,12.42,1,18.64a72.9,72.9,0,0,0,.54-7.53c.1-3.62.6-7.22.76-10.84,1.56.09,3.11.19,4.67.27-.33,5.66-.9,11.3-1.26,17-.36,3.42-.42,6.86-.87,10.26-2,.12-4,.27-6,.37-.72-4.55-1-9.16-1.47-13.75-.74,4.68-.89,9.42-1.56,14.1-2.22,0-4.41.37-6.62.56C97.33,59.63,96.53,49.55,95.64,39.49Z"/><path class="cls-11" d="M116.87,68.14q0-13.38,0-26.76c2.37.19,4.75.31,7.12.63,0,1.68,0,3.35,0,5-.92-.06-1.84-.08-2.76-.12,0,1.68,0,3.36,0,5h2.6c0,1.63,0,3.26,0,4.89h-2.61c0,1.86,0,3.72,0,5.58,1,0,2.07-.06,3.1-.09,0,1.72,0,3.43,0,5.16C121.83,67.64,119.35,67.94,116.87,68.14Z"/><path class="cls-12" d="M129.83,43.68a3.43,3.43,0,0,1,3.92-1.37,4.72,4.72,0,0,1,3,3.43c.64,2.45.34,5,.42,7.5-1.2,0-2.41,0-3.61-.07a37.56,37.56,0,0,0-.25-7.19,1.54,1.54,0,0,0-.9,1.46q-.06,7.76,0,15.5l1.09,0c.08-2,.11-4,.07-5.94h3.59c-.1,2.84.35,6-1.24,8.5a3.82,3.82,0,0,1-5.89.78c-1.24-1.52-1.37-3.59-1.42-5.47,0-4.45-.08-8.89,0-13.34A7.68,7.68,0,0,1,129.83,43.68Z"/><path class="cls-12" d="M139.37,43.17c1.54.26,3.08.41,4.63.52.49,7.37,1.17,14.72,1.67,22.09-1,.07-2.1.09-3.15.17-.08-1.27-.06-2.53-.16-3.79l-1.15.14c-.13,1.23-.09,2.47-.11,3.71-1.15.12-2.3.27-3.44.42C138.1,58.67,138.77,50.92,139.37,43.17Zm1.74,14.68,1.15-.09a69.11,69.11,0,0,0-.41-7.33C141.13,52.84,141.36,55.38,141.11,57.85Z"/><path class="cls-12" d="M146.17,44a14.36,14.36,0,0,1,5.37.79c1.14,2.3,1.07,4.93.94,7.43a4,4,0,0,1-1,2.09,6,6,0,0,1,1,2.9c0,2.62,0,5.23,0,7.85l-2.59.37c-.1-3.06.16-6.13-.16-9.18l-.64-.66c-.14,3.28,0,6.56-.06,9.84-1,.09-1.92.12-2.87.2C146.17,58.4,146.18,51.19,146.17,44ZM149,47.81c0,1.65,0,3.31.09,4.95a2.58,2.58,0,0,0,.88-2C150,49.75,150.08,48.41,149,47.81Z"/><path class="cls-13" d="M153.54,44.54c1.44.1,2.89.18,4.33.31,0,1.33,0,2.66,0,4l-1.8,0c0,1.24.16,2.47.18,3.72l1.41,0v3.85l-1.57,0c0,1.42,0,2.85.15,4.27l1.75,0c0,1.36,0,2.71,0,4.06-1.48.08-3,.16-4.44.28C153.53,58.18,153.51,51.36,153.54,44.54Z"/><path class="cls-14" d="M34.5,46c4.1-.43,8.22-.69,12.34-.91a106,106,0,0,1,15.74.28c-2.52.43-5.12.28-7.6.92s-4.77,2.21-7.31,2.95c-2,.67-4,.38-6.06.48A55.62,55.62,0,0,0,30,51.2C31.17,49.25,32.14,46.75,34.5,46Z"/><path class="cls-15" d="M149,47.81c1,.6.91,1.94,1,3a2.58,2.58,0,0,1-.88,2C149,51.12,149.05,49.46,149,47.81Z"/><path class="cls-16" d="M141.11,57.85c.25-2.47,0-5,.74-7.42a69.11,69.11,0,0,1,.41,7.33Z"/><path class="cls-17" d="M53,52c2.63,0,5.25-.39,7.88-.18.83.09,1.79.65,1.82,1.58,0,3.47-.89,6.86-1.29,10.3-1.37,1.26-3.35,1.33-5.1,1.09-2.43-.36-4.89-.37-7.33-.51a134.38,134.38,0,0,0-14-.05c-2.1,0-4.19.14-6.29.13A44.78,44.78,0,0,1,32.2,52.59C39.13,52.21,46.08,52.15,53,52Z"/><path class="cls-18" d="M65.66,52.38c3.07-.13,6.13-.3,9.2-.22.31,4.39.14,8.8.42,13.2-.82.09-1.63.21-2.44.31,0-.59,0-1.18,0-1.77-1.61,0-3.22.06-4.83.05,0,1-.1,2-.13,3-.78.09-1.55.19-2.33.26q.61-.47,1.23-.9c-1,.13-2,.2-3,.26,0-.92-.26-2.14.65-2.74a10.19,10.19,0,0,1,3.17-.18l.44-.9c-1.52.12-3,.31-4.56.5.36-3,1-6,1.6-9.06,1.18,0,2.35.14,3.52.24,0,2-.1,4.06-.13,6.09a10.61,10.61,0,0,0,0,2.87c1.43-.26,2.87-.49,4.32-.66a77.54,77.54,0,0,0,.45-8.2,52.65,52.65,0,0,0-8.11-1C65.33,53.18,65.5,52.78,65.66,52.38Z"/><path class="cls-19" d="M15,72.57c2.32-3.68,6.42-5.84,10.57-6.75.41.66.83,1.32,1.26,2a20.81,20.81,0,0,0-3.3,3.53,7.8,7.8,0,0,0,4.36.11c1.78-.63,3.33-1.82,5.19-2.23a21.44,21.44,0,0,0,4.79.53,21.23,21.23,0,0,0,4-.79,23.26,23.26,0,0,1,6.5-.5,94.61,94.61,0,0,0-13.16,4.21c-1.19.62-2.54.24-3.8.21C25.91,72.45,20.41,72,15,72.57Z"/><path class="cls-19" d="M99.42,81.94c.83-.46,1.22.8,1.4,1.4a12.35,12.35,0,0,1-.14,6.47c-.16.55-.82,1.48-1.39.79-1-1.49-1-3.41-.94-5.13C98.48,84.26,98.54,82.86,99.42,81.94Zm-.59,2.15a11.42,11.42,0,0,0-.2,3.78,2.82,2.82,0,0,0,.74,2,6.17,6.17,0,0,0,.61-2.74,7.89,7.89,0,0,0-.61-3.91A1.47,1.47,0,0,0,98.83,84.09Z"/><path class="cls-19" d="M94.92,82.43c.71-.13,1,.71,1.24,1.25a13.56,13.56,0,0,1,0,7.42c-.2.53-.5,1.41-1.23,1.26a3.11,3.11,0,0,1-1.06-2,14.35,14.35,0,0,1,0-6.12A2.94,2.94,0,0,1,94.92,82.43Zm-1,2.62A11.54,11.54,0,0,0,94,90a2.44,2.44,0,0,0,.69,1.23A2.5,2.5,0,0,0,95.32,90a11.63,11.63,0,0,0,.05-4.81,2.58,2.58,0,0,0-.73-1.39A2.48,2.48,0,0,0,94,85.05Z"/><path class="cls-19" d="M59.8,88.75c1.18-.6,2.21.65,2.6,1.64a14.64,14.64,0,0,1,.18,9.43c-.41,1.29-1,2.72-2.39,3.26-1.1.07-1.78-1-2.16-1.87a14.81,14.81,0,0,1-.35-8.79C58.08,91.08,58.57,89.56,59.8,88.75ZM61.39,93a6,6,0,0,0-.86,4.37,2.94,2.94,0,0,0,1.26,1.56,6.56,6.56,0,0,0,.77-4.39A2.89,2.89,0,0,0,61.39,93Z"/><path class="cls-20" d="M27.57,67.86c2.81,1.14,5.71-1,8.54,0-2.26.82-4.63,1.29-6.82,2.27a8,8,0,0,1-3.81.52A19.16,19.16,0,0,1,27.57,67.86Z"/><path class="cls-21" d="M14.21,73.83c2.47-.18,4.95-.08,7.43-.06,4,.16,8.13,0,12.13.75a28.65,28.65,0,0,1-.12,3.59c-.38,3.71-.21,7.48-.83,11.17a6.14,6.14,0,0,1-2.61.38c-3.89-.44-7.79-.76-11.69-1.13a31.92,31.92,0,0,1-5.43-.72A56.35,56.35,0,0,1,13,79.29,15.31,15.31,0,0,1,14.21,73.83ZM16,76.69c-.68,2.62-1.39,5.25-2.07,7.87l1.44.06c.49-1.86,1-3.72,1.46-5.58.23,1.89.35,3.79.54,5.68.59,0,1.19.08,1.79.1.7-2.62,1.39-5.25,2.08-7.87l-1.44-.06c-.49,1.81-.94,3.63-1.44,5.43-.21-1.84-.36-3.69-.53-5.53C17.21,76.77,16.6,76.73,16,76.69Zm5.94.29c-.11.43-.23.85-.34,1.27.58,0,1.16,0,1.73.09q-.86,3.28-1.73,6.58l1.59.08c.55-2.2,1.15-4.39,1.72-6.58l1.73.09c.11-.46.27-.9.37-1.36C25.31,77.22,23.62,77,21.93,77Zm5,3.72c.43,1,1.71,1.09,2.43,1.8a1.23,1.23,0,0,1-1.53,1.68c-.66-.19-.38-1-.33-1.44l-1.57-.06c-.16.75-.39,1.71.32,2.26a3.81,3.81,0,0,0,3.2.22,3,3,0,0,0,1.81-3C31,81.1,29.8,80.85,29,80.31c-1-.44-.3-2.15.72-1.93.69-.07.7.73.63,1.2l1.5.08c.08-.6.24-1.31-.21-1.81A2.93,2.93,0,0,0,29,77.29,2.83,2.83,0,0,0,26.93,80.7Z"/><path class="cls-22" d="M77.39,76.14,78.82,76c0,.55,0,1.11,0,1.66l-1.43,0C77.4,77.17,77.4,76.65,77.39,76.14Z"/><path class="cls-22" d="M70.27,76.48c.68,0,1.37-.11,2.06-.14,0,.69,0,1.38-.06,2.08l-2,.2C70.25,77.91,70.26,77.19,70.27,76.48Z"/><path class="cls-22" d="M88.46,88.88a19.42,19.42,0,0,1,4.17-.27,7,7,0,0,1-3.75,1.31C88.73,89.57,88.59,89.23,88.46,88.88Z"/><path d="M16,76.69c.61,0,1.22.08,1.83.1.17,1.84.32,3.69.53,5.53.5-1.8.95-3.62,1.44-5.43l1.44.06c-.69,2.62-1.38,5.25-2.08,7.87-.6,0-1.2,0-1.79-.1-.19-1.89-.31-3.79-.54-5.68-.47,1.86-1,3.72-1.46,5.58l-1.44-.06C14.6,81.94,15.31,79.31,16,76.69Z"/><path d="M21.93,77c1.69,0,3.38.24,5.07.17-.1.46-.26.9-.37,1.36l-1.73-.09c-.57,2.19-1.17,4.38-1.72,6.58l-1.59-.08q.87-3.3,1.73-6.58c-.57,0-1.15-.06-1.73-.09C21.7,77.83,21.82,77.41,21.93,77Z"/><path d="M26.93,80.7A2.83,2.83,0,0,1,29,77.29a2.93,2.93,0,0,1,2.61.56c.45.5.29,1.21.21,1.81l-1.5-.08c.07-.47.06-1.27-.63-1.2-1-.22-1.73,1.49-.72,1.93.79.54,2,.79,2.25,1.87a3,3,0,0,1-1.81,3,3.81,3.81,0,0,1-3.2-.22c-.71-.55-.48-1.51-.32-2.26l1.57.06c-.05.48-.33,1.25.33,1.44a1.23,1.23,0,0,0,1.53-1.68C28.64,81.79,27.36,81.72,26.93,80.7Z"/><path d="M98.83,84.09a1.47,1.47,0,0,1,.54-.85,7.89,7.89,0,0,1,.61,3.91,6.17,6.17,0,0,1-.61,2.74,2.82,2.82,0,0,1-.74-2A11.42,11.42,0,0,1,98.83,84.09Z"/><path d="M94,85.05a2.48,2.48,0,0,1,.69-1.23,2.58,2.58,0,0,1,.73,1.39A11.63,11.63,0,0,1,95.32,90a2.5,2.5,0,0,1-.68,1.19A2.44,2.44,0,0,1,94,90,11.54,11.54,0,0,1,94,85.05Z"/><path class="cls-23" d="M34.45,92.37A21.19,21.19,0,0,1,48,80.92c-2.54,1.46-5.27,2.68-7.52,4.59a11.65,11.65,0,0,0-3.18,4.09l1.59.23c-.27.9-.55,1.8-.84,2.69C36.82,92.51,35.63,92.43,34.45,92.37Z"/><path class="cls-24" d="M75.38,84.81c5.05-.92,10.08-1.88,15.13-2.77V84C82.68,85.79,74.8,87.42,67,89.28c-.25-1.12-.49-2.24-.74-3.36.92,0,2-.09,2.65.67,1.66-.26,3.32-.5,5-.69A2.06,2.06,0,0,1,75.38,84.81Z"/><path class="cls-25" d="M116.3,97.89a44.68,44.68,0,0,0,14.59-14.61l1.5.16c-1.09,1.7-2.27,3.33-3.46,5A45.5,45.5,0,0,1,71.1,100.21a3.56,3.56,0,0,1,2.86,0,44.62,44.62,0,0,0,42.34-2.3Z"/><path class="cls-26" d="M50.49,89.27c1.16-.29,2.33-.56,3.52-.74-.28,1.36-.68,2.7-1,4a7.19,7.19,0,0,1-3.06.82,71.83,71.83,0,0,1-12,.79c0-.21.1-.62.14-.82a46.5,46.5,0,0,0,7.37,0,27.25,27.25,0,0,1,5.63-.37l.51-1-2,.28C49.88,91.23,50.19,90.25,50.49,89.27Z"/><path class="cls-27" d="M6,89.72c1,.06,2.18.16,2.41,1.3C7.67,91,7,90.85,6.24,90.73Z"/><path class="cls-27" d="M5.71,93.32a12.74,12.74,0,0,1,0-2.31c.29,1.34.63,2.67,1,4A11.55,11.55,0,0,1,5.71,93.32Z"/><path class="cls-28" d="M10.18,92.83c7.72.82,15.41,1.86,23.16,2.35-.08,1.32-.62,2.56-.81,3.87a78.4,78.4,0,0,1-8.38-.66c-4.41-.46-8.83-.91-13.19-1.74C10.66,95.38,10.38,94.11,10.18,92.83Zm2.06,1.81c.4.39.71,1,1.32,1.08,1.9.4,3.83.53,5.75.81a84.46,84.46,0,0,0,10.53.86l.44-1C24.24,96.16,18.26,95.13,12.24,94.64Z"/><path class="cls-29" d="M68,93.69c2.53-.39,5.13-1.22,7.67-.46-.67,1.08-2.06,1.15-3.16,1.51a10,10,0,0,1-4.27.49C68.17,94.72,68.08,94.2,68,93.69Z"/><path class="cls-30" d="M61.39,93a2.89,2.89,0,0,1,1.17,1.54,6.56,6.56,0,0,1-.77,4.39,2.94,2.94,0,0,1-1.26-1.56A6,6,0,0,1,61.39,93Z"/><path class="cls-31" d="M12.24,94.64c6,.49,12,1.52,18,1.73l-.44,1a84.46,84.46,0,0,1-10.53-.86c-1.92-.28-3.85-.41-5.75-.81C13,95.65,12.64,95,12.24,94.64Z"/><path class="cls-32" d="M42.8,95.16c1.7,0,3.39-.18,5.1-.16-.51,1.15-1,2.31-1.44,3.48-1.74.2-3.48.26-5.23.31C41.76,97.58,42.29,96.38,42.8,95.16Z"/><path class="cls-33" d="M44.75,99.84c2.2-.1,4.38-.56,6.59-.6A5,5,0,0,1,48,102c-4.36.72-8.79.19-13.17-.08L36,99.76C38.91,99.86,41.83,100,44.75,99.84Z"/></g></g></svg>